<svg xmlns="http://www.w3.org/2000/svg" viewBox="0 0 199.32 659.97"><defs><style>.cls-1{fill:#e48868;}.cls-2{fill:#999;}.cls-3{fill:#63c;}.cls-4{fill:#5b00b6;}.cls-5{fill:#ba745d;}.cls-6{fill:#4d4d4d;}.cls-7{fill:#341c02;}.cls-8{fill:#7a7a7a;}.cls-9{fill:#1c1c1b;}.cls-10{fill:none;stroke:#e6e6e6;stroke-miterlimit:10;}.cls-11{fill:#b7903b;}.cls-12{fill:#c1c1c1;}</style></defs><title>dummy</title><g id="Layer_2" data-name="Layer 2"><g id="OBJECTS"><path class="cls-1" d="M39.81,450.41s0,39,7.52,67.81c2.87,11,27.6,109.34,27.6,109.34H91.19L75.56,444.77Z"/><path class="cls-1" d="M121,450.41s5,41.47,12.5,70.32c2.86,11,22.62,106.83,22.62,106.83h16.25s-2.67-81.7-5.63-111.85c-1.64-16.72-10-70.94-10-70.94Z"/><path class="cls-2" d="M25.59,310.55s-3.14,43.9-4.39,62.09,9.41,87.18,9.41,87.18H87.37l3.82-85,23.46,85h55.82L152.91,320.58S75.77,298,25.59,310.55Z"/><path class="cls-3" d="M166.7,158.85,152.91,320.58l-127.32-10L8.5,321.46c-7-40.74-12-89.07-5.34-131.22,2.12-13.38,8.66-45.32,11.33-58.72,1.44-7.24,60-38.53,70.68-37.9s33.06,2.91,40.77,3.76c19,2.09,47.15,26.13,54.05,34.51s24.14,124.5,13.79,128-35.06-.15-39.09-15.88.58-88.46.58-88.46"/><path class="cls-4" d="M49.69,272.14a1.15,1.15,0,0,1-.54-2.16A179.18,179.18,0,0,0,106,221.67a1.15,1.15,0,0,1,1.82,1.4A181.28,181.28,0,0,1,50.23,272,1.14,1.14,0,0,1,49.69,272.14Z"/><path class="cls-4" d="M88.37,287.15a1.16,1.16,0,0,1-.7-.24,1.15,1.15,0,0,1-.2-1.61c14.82-19,25.41-35.07,32.41-56.14a1.15,1.15,0,1,1,2.18.73c-7.1,21.37-17.81,37.58-32.78,56.82A1.13,1.13,0,0,1,88.37,287.15Z"/><path class="cls-4" d="M29.29,301H29.2a1.15,1.15,0,0,1-1.06-1.23c1.53-20.53,3.39-40.16,5.17-59.15,1.34-14.19,2.72-28.87,4-44.07,1.53-18.36,1.82-53.31-6.77-67.78a1.15,1.15,0,0,1,2-1.18c8.89,15,8.63,50.51,7.08,69.15-1.28,15.21-2.66,29.9-4,44.1-1.79,19-3.63,38.59-5.16,59.1A1.15,1.15,0,0,1,29.29,301Z"/><polygon class="cls-3" points="74.93 627.56 78.07 648.68 61.13 659.97 100.07 659.97 91.19 627.56 74.93 627.56"/><polygon class="cls-3" points="156.09 627.56 159.18 659.97 199.32 659.97 174.86 648.36 172.34 627.56 156.09 627.56"/><path class="cls-1" d="M75.62,69.16V96s21.69,23,41.61.54l-1.75-27.38Z"/><path class="cls-1" d="M128.68,50.35a7.75,7.75,0,0,0-2.2-.63c3.07-19.57,1.75-43.89-30.3-42.93-19.12.56-24.8,18.1-26,36.44a5.6,5.6,0,0,0-4.34-.14c-6.6,2-2,18.63,4.82,21.18C73.17,81,82,91.77,94.7,92.72c11.72.88,20.88-8.23,26.4-22C128.24,69.16,135,53.17,128.68,50.35Z"/><path class="cls-5" d="M96.23,93.93c-.54,0-1.07,0-1.61-.07a23.75,23.75,0,0,1-17-9.07,1.15,1.15,0,1,1,1.78-1.45,21.5,21.5,0,0,0,15.35,8.23c6.29.44,12-2,17-7.44a1.15,1.15,0,1,1,1.69,1.56C108.48,91.1,102.56,93.93,96.23,93.93Z"/><path class="cls-6" d="M151.47,353a.9.9,0,0,1-.28,0c-5.77-1.45-10.83-6.08-13.88-12.68-2.67-5.78-3.53-12.08-4.36-18.17a1.16,1.16,0,0,1,1-1.3,1.21,1.21,0,0,1,1.3,1c.81,5.92,1.64,12.05,4.17,17.52,2.75,6,7.26,10.13,12.35,11.42a1.13,1.13,0,0,1,.83,1.39A1.15,1.15,0,0,1,151.47,353Z"/><path class="cls-6" d="M92.41,365.08l-2.08-1.62c-4.18-3.26-4.73-9-4.93-14.13l-1-27.83a1.15,1.15,0,0,1,2.3-.09l1,27.83c.13,3.4.42,7.09,1.92,9.85-.85-13-.18-26.4.53-36.86a1.09,1.09,0,0,1,1.22-1.07,1.14,1.14,0,0,1,1.07,1.22c-.76,11.34-1.49,26.13-.26,40.07Z"/><path class="cls-6" d="M155.88,455.12c-12.08,0-24.22-.48-36.18-1.43a1.15,1.15,0,0,1-1.06-1.24,1.16,1.16,0,0,1,1.24-1.05c14,1.11,28.29,1.57,42.43,1.37h0a1.15,1.15,0,0,1,0,2.3C160.19,455.1,158,455.12,155.88,455.12Z"/><path class="cls-6" d="M67.8,455c-7.44,0-14.89-.36-22.27-1.09a1.15,1.15,0,0,1-1-1.26,1.16,1.16,0,0,1,1.26-1,225,225,0,0,0,37.16.58,1.09,1.09,0,0,1,1.23,1.06,1.15,1.15,0,0,1-1.07,1.23C78,454.82,72.9,455,67.8,455Z"/><path class="cls-1" d="M8.5,321.46S26,355.46,32,340s0-30.78,0-30.78l-6.4,1.37Z"/><path class="cls-7" d="M70.15,43.23l4.07,6.54h4.33V38.55S84,33,84.57,26.73l32.66,2.33s-1,8.05,1.54,11.21V53.2h4l3.69-3.48s7.92-28.71,4.7-35.89-9.82-4.6-9.82-4.6S110.6-3.41,95.57.9,68.47,14.4,66.18,20.73,70.15,43.23,70.15,43.23Z"/><path class="cls-8" d="M140.3,190V168.3a2.16,2.16,0,0,0-2.15-2.36l-21.91.15a2.15,2.15,0,0,0-2.11,2.47l.56,31.52c.24,1.63,6.68,4.14,8,3.11l14.72-11.79C137.81,191,140.24,190.6,140.3,190Z"/><path class="cls-1" d="M155.84,211.63,149,199.46s-4.18-13.41-7.14-15.34l-3.83,6.71s-22.62-11.06-23.54-10.27L109.45,185l6.3,4.83s-3.54,1.86-3.63,3.15a9.25,9.25,0,0,0,.58,3.12,24.41,24.41,0,0,0-3.12,5.72c-1.08,3.06,5.64,2.19,5.9,5.29s16.69,10.65,19.09,11.45S157.1,232,157.1,232Z"/><path class="cls-4" d="M169.78,212.94a1.15,1.15,0,0,1-.44-.09l-10.47-4.29a1.15,1.15,0,1,1,.87-2.13l10.48,4.29a1.16,1.16,0,0,1-.44,2.22Z"/><path class="cls-4" d="M161.18,209.26h0a1.16,1.16,0,0,1-1.13-1.17l.68-39.09a1.13,1.13,0,0,1,1.17-1.12A1.14,1.14,0,0,1,163,169l-.68,39.09A1.16,1.16,0,0,1,161.18,209.26Z"/><path d="M130.44,181.46c-.05,2.95-1.79,1.59-3,1.82-1.45.27-3.36.72-3.31-1.87.07-4.19,1.39-1.6,3.27-2.48S130.49,178.71,130.44,181.46Z"/><circle class="cls-8" cx="130.6" cy="181.25" r="1.62"/><path d="M126.67,176.86c-.59.9-.56,1.48.77.76a1.69,1.69,0,0,0,.76-.76c.57-1.09.25-1.45-.76-.76A2.43,2.43,0,0,0,126.67,176.86Z"/><circle cx="136.54" cy="168.86" r="1.37"/><circle class="cls-9" cx="136.54" cy="168.86" r="1.17"/><circle cx="136.54" cy="168.86" r="0.68"/><polyline class="cls-3" points="91.19 627.73 89.38 606.57 70.66 610.36 74.93 627.73"/><line class="cls-10" x1="71.45" y1="613.64" x2="89.76" y2="609.41"/><line class="cls-10" x1="72.43" y1="617.81" x2="90.07" y2="613.74"/><line class="cls-10" x1="73.48" y1="621.85" x2="90.35" y2="617.96"/><polyline class="cls-3" points="172.34 627.69 171.58 606.32 152.47 610.19 156.09 627.69"/><line class="cls-10" x1="153.28" y1="613.91" x2="171.7" y2="609.66"/><line class="cls-10" x1="153.94" y1="617.73" x2="172.34" y2="613.48"/><line class="cls-10" x1="155.03" y1="621.76" x2="171.9" y2="617.87"/><path class="cls-11" d="M97.08,126.11c-.54,0-1.07,0-1.61-.06a23.75,23.75,0,0,1-17-9.07C78.1,116.49,68.45,99,69,98.64S79.88,115,80.29,115.53a21.54,21.54,0,0,0,15.35,8.23c6.29.44,12-2,17-7.44.44-.47,11-19.56,11.49-19.14s-9.36,20.23-9.79,20.69C109.33,123.28,103.41,126.11,97.08,126.11Z"/><circle class="cls-12" cx="122.64" cy="67.84" r="0.99"/><circle class="cls-12" cx="68.93" cy="61.07" r="0.99"/></g></g></svg>