<svg id="Preto_Lateral" data-name="Preto Lateral" xmlns="http://www.w3.org/2000/svg" viewBox="0 0 772.47 331.19"><defs><style>.cls-1{fill:none;stroke:#63c;stroke-miterlimit:10;stroke-width:0.75px;} .fill_svg{fill: #63c}</style></defs><path class="fill_svg" d="M848.08,575.4a74.41,74.41,0,0,0-28-32q-18.63-11.88-46.87-11.88H714v68.42H680.76l-28.84-69h-13.5l70.4,166.58H639V709H773.21Q799,709,818,698a74,74,0,0,0,29.25-31q10.24-20,10.25-47Q857.46,595.53,848.08,575.4ZM773.21,543c3.32,0,6.53.17,9.63.48L727,674.7V543ZM714,608.76v70.57l-29.5-70.57ZM836.58,659.4a64.4,64.4,0,0,1-24.12,27.87q-16,10.26-39.25,10.25H730.35l65.37-151.68a61.8,61.8,0,0,1,16.36,7.06,64,64,0,0,1,24.25,27.37q8.37,17.51,8.38,39.75Q844.71,641.77,836.58,659.4Z" transform="translate(-638.42 -530.94)"/><text x="-638.42" y="-530.94"/><path class="fill_svg" d="M916,638h2l-14.7,69h42.3l-.4,2h-44.3Z" transform="translate(-638.42 -530.94)"/><path class="fill_svg" d="M951.65,638h2.1l13.8,68.5,42.7-68.5h2.2l-44.4,71h-2.2Z" transform="translate(-638.42 -530.94)"/><path class="fill_svg" d="M1042,709V638h22.8q11.2,0,18.55,4.75a29.7,29.7,0,0,1,11,12.8,42.21,42.21,0,0,1,3.7,17.85,41.12,41.12,0,0,1-4,18.8,29.46,29.46,0,0,1-11.55,12.4,34.38,34.38,0,0,1-17.7,4.4Zm54.1-35.6a39.18,39.18,0,0,0-3.65-17.25,27.94,27.94,0,0,0-10.6-11.85q-6.94-4.31-17-4.3H1044v67h20.8q10.3,0,17.25-4.4a27.79,27.79,0,0,0,10.5-12.05A40.23,40.23,0,0,0,1096.05,673.38Z" transform="translate(-638.42 -530.94)"/><path class="fill_svg" d="M1132.75,710a22.35,22.35,0,0,1-9.65-2.15,25.69,25.69,0,0,1-8-5.9,27.72,27.72,0,0,1-5.4-8.7,28.53,28.53,0,0,1-2-10.55,27.13,27.13,0,0,1,3.3-13.3,26,26,0,0,1,8.85-9.55,22.4,22.4,0,0,1,12.35-3.55,22.88,22.88,0,0,1,12.55,3.6,26.82,26.82,0,0,1,9,9.65,27.13,27.13,0,0,1,3.4,13.55v1.1h-47.5a27.37,27.37,0,0,0,3.7,12.1,24.56,24.56,0,0,0,8.3,8.55,20.73,20.73,0,0,0,11.1,3.15,21.8,21.8,0,0,0,11.2-3.05,17.64,17.64,0,0,0,7.4-7.85l1.9.5a17.14,17.14,0,0,1-4.55,6.35,23.14,23.14,0,0,1-7.35,4.45A24.38,24.38,0,0,1,1132.75,710Zm-23-27.8h45.4a27.51,27.51,0,0,0-3.5-12.35,23.81,23.81,0,0,0-8.1-8.45,20.82,20.82,0,0,0-11.2-3.1,20.6,20.6,0,0,0-11.1,3.1,23.26,23.26,0,0,0-8,8.5A27.9,27.9,0,0,0,1109.75,682.18Z" transform="translate(-638.42 -530.94)"/><path class="fill_svg" d="M1184.25,710a28.55,28.55,0,0,1-10.9-2.05,24.44,24.44,0,0,1-8.9-6.35l1.5-1.3a27.9,27.9,0,0,0,8.4,5.8,24.66,24.66,0,0,0,9.9,1.9q7.7,0,12.5-3.35a10.67,10.67,0,0,0,4.8-9.25,8.15,8.15,0,0,0-2.1-6,15.21,15.21,0,0,0-6.15-3.5q-4-1.35-9.85-2.65-5.31-1.31-8.85-2.55a11.3,11.3,0,0,1-5.3-3.45,9.91,9.91,0,0,1-1.75-6.3,13.07,13.07,0,0,1,2.55-8.4,15.11,15.11,0,0,1,6.7-4.75,25.7,25.7,0,0,1,9-1.55,24.59,24.59,0,0,1,10.75,2.15,13.09,13.09,0,0,1,6.15,5.35l-1.8.8a11.77,11.77,0,0,0-6.2-4.7,26.41,26.41,0,0,0-9.3-1.6,23,23,0,0,0-7.9,1.3,13,13,0,0,0-5.8,4,10.88,10.88,0,0,0-2.2,7.1,8.36,8.36,0,0,0,1.5,5.3,9.83,9.83,0,0,0,4.6,3c2.06.73,4.7,1.5,7.9,2.3q6.2,1.4,10.7,2.9a17.07,17.07,0,0,1,6.9,4q2.4,2.45,2.4,7a13,13,0,0,1-5.3,10.85Q1192.94,710,1184.25,710Z" transform="translate(-638.42 -530.94)"/><path class="fill_svg" d="M1216.25,643.68V636h2v7.7Zm0,65.3v-51.9h2V709Z" transform="translate(-638.42 -530.94)"/><path class="fill_svg" d="M1256.25,710a22.07,22.07,0,0,1-10-2.3,25.45,25.45,0,0,1-8-6.15,28.88,28.88,0,0,1-5.2-8.6,26.54,26.54,0,0,1-1.85-9.75,29.28,29.28,0,0,1,1.75-10,27.85,27.85,0,0,1,5-8.65,23.55,23.55,0,0,1,7.65-6,21.61,21.61,0,0,1,9.75-2.2,20.32,20.32,0,0,1,12.3,3.8,38.65,38.65,0,0,1,8.9,9.1v-12.1h2v54.1a18.86,18.86,0,0,1-3.25,11.3,19.34,19.34,0,0,1-8.5,6.65,29.21,29.21,0,0,1-11.15,2.15q-9.21,0-14.4-3.45a24,24,0,0,1-8.1-9l1.9-.6a19.23,19.23,0,0,0,8.75,8.4,27.64,27.64,0,0,0,11.85,2.6,26.22,26.22,0,0,0,10.45-2,17.68,17.68,0,0,0,7.6-6.1,16.86,16.86,0,0,0,2.85-10v-13a26,26,0,0,1-8.85,8.5A22.13,22.13,0,0,1,1256.25,710Zm0-2a19.34,19.34,0,0,0,7.2-1.4,24.62,24.62,0,0,0,6.4-3.75,22,22,0,0,0,4.7-5.15,12,12,0,0,0,2-5.6v-18.7a21.59,21.59,0,0,0-5-7.8,25.8,25.8,0,0,0-7.55-5.35,20.44,20.44,0,0,0-8.7-2,19.58,19.58,0,0,0-9.35,2.2,21.08,21.08,0,0,0-7,5.85,27.87,27.87,0,0,0-4.3,8,27.13,27.13,0,0,0-1.5,8.8,25.53,25.53,0,0,0,6.7,17.3,23.94,23.94,0,0,0,7.35,5.5A20.37,20.37,0,0,0,1256.25,708Z" transform="translate(-638.42 -530.94)"/><path class="fill_svg" d="M1335.65,709h-2v-28.9q0-11.3-3.15-16.55t-10.15-5.25a21.67,21.67,0,0,0-9.75,2.35,26.08,26.08,0,0,0-8.25,6.4,24.26,24.26,0,0,0-5,9.15V709h-2v-51.9h2v13.4a25.77,25.77,0,0,1,5.8-7.4,27.65,27.65,0,0,1,8-5,23.9,23.9,0,0,1,9-1.8,15.26,15.26,0,0,1,6.9,1.45,12.33,12.33,0,0,1,4.8,4.35,21,21,0,0,1,2.8,7.4,54.65,54.65,0,0,1,.9,10.6Z" transform="translate(-638.42 -530.94)"/><path class="fill_svg" d="M1358.77,707.41v-7.82H1362a1.92,1.92,0,0,1,.9.2,2.26,2.26,0,0,1,.71.55,2.63,2.63,0,0,1,.46.77,2.4,2.4,0,0,1,.17.87,2.44,2.44,0,0,1-.25,1.11,2.28,2.28,0,0,1-.67.86,1.85,1.85,0,0,1-1,.4l2,3.06h-.44l-1.94-3h-2.73v3Zm.39-3.37h2.9a1.56,1.56,0,0,0,1-.3,2,2,0,0,0,.62-.77,2.3,2.3,0,0,0,.22-1,2.06,2.06,0,0,0-.25-1,2.14,2.14,0,0,0-.68-.75,1.58,1.58,0,0,0-.94-.29h-2.82Z" transform="translate(-638.42 -530.94)"/><circle class="cls-1" cx="723.1" cy="172.56" r="7.48"/></svg>