<svg id="Camada_3" data-name="Camada 3" xmlns="http://www.w3.org/2000/svg" viewBox="0 0 506.98 412.18"> <style>.fill_svg{fill: #63c}</style> <path class="fill_svg" d="M1177.17,415.9a172.39,172.39,0,0,0-64.8-74.06q-43.12-27.48-108.5-27.49H866.73V472.7H789.91L723.14,313H691.89l163,385.56H693.14v26.62h310.73q59.59,0,103.58-25.46t67.7-71.75q23.71-46.29,23.72-108.78Q1198.87,462.49,1177.17,415.9ZM1003.87,341c7.7,0,15.13.38,22.31,1.1L896.82,645.73V341ZM866.73,493.12V656.47L798.44,493.12Zm283.83,117.2q-18.82,40.8-55.84,64.52t-90.85,23.72H904.68L1056,347.5a143,143,0,0,1,37.88,16.32q36.74,22.88,56.13,63.36t19.38,92Q1169.36,569.53,1150.56,610.32Z" transform="translate(-691.89 -313)"/></svg>