<svg xmlns="http://www.w3.org/2000/svg" viewBox="0 0 563.12 624.84"><defs><style>.cls-1,.cls-3,.cls-4{fill:none;}.cls-1,.cls-2,.cls-3,.cls-4{stroke:#63c;stroke-miterlimit:10;}.cls-1{stroke-width:21px;}.cls-2{fill:#63c;}.cls-3{stroke-width:2px;}</style></defs><title>logo</title><g id="Layer_2" data-name="Layer 2"><g id="Layer_2-2" data-name="Layer 2"><path class="cls-1" d="M350.62,606.57s-255-272-333.29-595.5c-.57-2.34-6.83,3.06-6.83,6.83V589.74A21.36,21.36,0,0,0,31.83,611.1l218.29.47"/><path class="cls-1" d="M348.62,594.57c3.43-6.41,371.9-375.38,99-425"/><path class="cls-2" d="M546.65,606.28a12.49,12.49,0,0,1,2.35-.2,3.93,3.93,0,0,1,2.75.77,2.39,2.39,0,0,1,.74,1.81,2.5,2.5,0,0,1-1.78,2.41v0A2.42,2.42,0,0,1,552.1,613a16.07,16.07,0,0,0,.72,2.6h-1.27a13.35,13.35,0,0,1-.62-2.27c-.28-1.29-.79-1.8-1.9-1.83h-1.16v4.1h-1.22Zm1.22,4.31h1.25c1.31,0,2.14-.71,2.14-1.8s-.88-1.76-2.18-1.76a5.75,5.75,0,0,0-1.21.1Z"/><circle class="cls-3" cx="549.37" cy="611.09" r="12.75"/><circle class="cls-4" cx="549.37" cy="611.09" r="9.63"/></g></g></svg>